<mxfile host="app.diagrams.net" modified="2021-04-13T05:33:16.588Z" agent="5.0 (Windows NT 10.0; Win64; x64) AppleWebKit/537.36 (KHTML, like Gecko) Chrome/89.0.4389.114 Safari/537.36 Edg/89.0.774.75" etag="hT2I2S6n0B5Zv7ep-2qb" version="14.5.10" type="github">
  <diagram id="a3R2w4tenQ1a1NCuHC_m" name="Page-1">
    <mxGraphModel dx="1958" dy="482" grid="1" gridSize="10" guides="1" tooltips="1" connect="1" arrows="1" fold="1" page="1" pageScale="1" pageWidth="850" pageHeight="1100" math="0" shadow="0">
      <root>
        <mxCell id="0" />
        <mxCell id="1" parent="0" />
        <mxCell id="TFa0Fs1w__sC3nQEy60Y-34" value="" style="shape=image;verticalLabelPosition=bottom;labelBackgroundColor=#ffffff;verticalAlign=top;aspect=fixed;imageAspect=0;image=data:image/png,iVBORw0KGgoAAAANSUhEUgAAAKQAAAB1CAYAAADA10rLAAAGRElEQVR4Ae2a3XHjOgxGVUI6yYPLcTNuJS5lXcZ9iwvhHdKEBELUX8Y2sJvjmYwokiJI4MMhpd0h8cMDgTwwBJoLU8EDabcgPz8/0zAM/OGD3RrImjn62y3ILMbv+50/fLBbA1kzR3+7n0CQJONRICFI6LWbXkfF9ZP+CBJBIsifZA7P/I7tH0JCyN9CyP9WXvVP6XLbmfG3SzoNR/pf09fS2EfHWhLrTdl41phLtmb1t3Q5TZ/STpdbK6gyn6k9E2c4XdKf2TjV/9dzGoZz+lpqf3P9Cwn5EOTMYfd7+nM5vcYJW+LYat/j/GeMscfOQp+v85CG87WK8JrOw5AaH2eBrQnQjosgc2Y+HHm+7qSkdeLS/ZZYttqXxtX1zxhDj3ek3LFdklsJsNyPgt3hXwTZE2S7DU0EuKdvHQQpX/M2Pm1LRdilbaprqCFBl+fzli7l3ljS3157NmSclTHLXMyzbTKa9R/YQq0gM0G7ax/X8oBB2crzUehitmwzz9xPxmvp/BB7kwCdZ9t1bieIy5ZdFjY6vQZjzGpzPwt4eyYqDpGxdN8xAMoJul2cZ+kiY/Wez3V6DHu/OObKnO9mvXKkUfNa/sJgd5q6hZ/ykUiSU58Pa/t47hRxSh87njlezWj6mPsEBHPWr/44IsqXC3JyjDgoX8UB9/Q9W6Sp0wLoLXDWbpyihTXrO6TGWbpdP6fLto++L+XemL26Os/e+jePNFXE9oWl2heiFSGXuurvjq02oW/zlx+9PjsvPbYua38dLL9ckI1zepPLTrI00E5YKstYW+3SL1+3+up2/Zwu2z76XpflmY26hyB0sk7lTd9lGx2RtUSdqFdsdX2tADGOOc1jUF85yhh1N9PlbPOx89Xnxh1P7VDik5UrgtSfiHrisc6zffS9LstzG3Vdkcizu66T4FohihCm9q6tMj8R5KOvFmCTxHk+Y3+1Xc/mKeNkccrYMp/1awxBqgwsTtVZrwOqy+IEXafL0q6vul2XpU+vTtrkavvoe11e6p/rdb+y1pVjhoyTr9ovY/0kuOX2leOBHjOXLUFn86tCvOQXyy2xqbmN840uyNmhvp6PBPk6eLosC2zqNhyg++pyd6wlxxkbehxdXhuz6VfXq4UwE4HMpUOlRkRb7Y+5T18x6r0Iy9ot88yUaxOmkDafXyVGea3lWSPQZp2yhvWrPyFL4GpQ5M1QL1QvSpcXAj6eY/QYvb47xupvgeqslG3ocXS5Z3OxzqzfCKCdh+mrhVzGF5HVs9xq+/yzz+i/EossRJOA2UZZp3lRy/VFlNXu+Py6ANu13cvXAf4/pAiFa/vPkEv+KII0NFzqe7D+hYRMRe02A7g/RoyI/spb9q4vAAfFmNeKIH/gtIgiecuc6lY9e/F5og8R5BOd+RZR/OPzRZD/eID/tiRBkAhy34vMm/yEIN/k6L+NVF7zRZAIEkJ6ZR92439ygpAQEkJCqvik8ooRhISQENIr+7Abn8wQEkJCSEgVn1ReMYKQEBJCemUfduOTGUJCSAgJqeKTyitGEBJCQkiv7MNufDJDSAgJISFVfFJ5xQhCQkgI6ZV92I1PZggJISEkpIpPKq8YQUgICSG9sg+78ckMISEkhIRU8UnlFSMICSEhpFf2YTc+mSEkhISQkCo+qbxiBCEhJIT0yj7sxiczhISQEBJSxSeVV4wgJISEkF7Zh934ZIaQEBJCQqr4pPKKEYSEkBDSK/uwG5/MEBJCQkhIFZ9UXjGCkBASQnplH3bjkxlCQkgICanik8orRhASQkJIr+zDbnwyQ0gICSEhVXxSecUIQkJICOmVfdiNT2YICSEhJKSKTyqvGEFICAkhvbIPu/HJDCEhJISEVPFJ5RUjCAkhIaRX9mE3PpkhJISEkJAqPqm8YgQhISSE9Mo+7MYnM4SEkBASUsUnlVeMICSEhJBe2Yfd+GSGkBASQkKq+KTyihGEhJAQ0iv7sBufzBASQkJISBWfVF4xgpAQEkJ6ZR9245MZQkJICAmp4pPKK0YQEkJCSK/sw258MkNICAkhIVV8UnnFCEJCSAjplX3YjU9mCAkhISSkik8qrxhBSAgJIb2yD7vxyQwhISSEhFTxSeUVIwgJIX8PIT8+PlJWPH/4YK8GsmaO/v4HNZtlT4xGdRQAAAAASUVORK5CYII=;" parent="1" vertex="1">
          <mxGeometry x="630" y="690" width="140.17" height="100" as="geometry" />
        </mxCell>
        <mxCell id="TFa0Fs1w__sC3nQEy60Y-33" value="" style="shape=image;verticalLabelPosition=bottom;labelBackgroundColor=#ffffff;verticalAlign=top;aspect=fixed;imageAspect=0;image=data:image/png,iVBORw0KGgoAAAANSUhEUgAAAG0AAABgCAYAAAAXZvyIAAADYUlEQVR4Ae3a7Y2rMBCFYZeQTvYH5bgZWklK2XQSCvHKDocMBkKk3VmZ5L3Synw4A/j4MYl0Q9r49/X1lUII/DU2BiWXjcxKWLdhSPy1NQYFEqG1FcoeEkI74EpCaIR2rGVmbxlq9fyutL4LKV6qMK596ro+ff/VLM31Qkzn39T7ixq/uf4/fnY3tO++S11/nX2DXDvW6qx8x/vaDe22UHVNfdel/ip9lxSn3zFGS/lcTLHLv/PG45dofvNVfdWnzNhnNfvUx8dvx2kVsNLGe17tV9fv8j3a59FztdvuhzZUIVUhnmOYJGaBIV7uKssg2qU1B/EIatn3cc7WvOWgtRSPNSf5i3NjjWf9hiEt6oe3C21Idjm027chB2Ef2ARTBu4RxLKvmcmzvqbGpGK8xqzfkMoqoIlgz9ntXGO2X9evJmW5prm3BvdfkDY+dJnt9QPmAXgsVaWYQpwN1DgI5Zj6m7BtX7tdBsxcsz5n97e269ByP8mt6zcY0No7+bXQyhIZ03nxwPWsNTPUDuLaYGwtbUXvhtC6pt3f2q5DW9Q3k2LtPhs89mJo9yUyxji9vzQDFu8HzWI7iPnBbUj1ftX35Zr2c1vb+Vr23Ke800pA5cHNkjbNQLtEmvPVQOUaOYz7Eppbo2nR19Z80s9+bmt7JbT7+3W8l9hX34bNajE9Y1vHXpYmWW/X2rAbDake8w8MLb/DrHizOhBaW0tKPVuPvP+B0o4/mQjtIEuiXRkIjdCOv/TYGd3qNtKQhrT/0Ik0pCENaQdUQGiENvu/OZoQvNMOODEIjdD4IqIlzLNFGtKQ5ilMtZGGNKRJg2eLNKQhzVOYaiMNaUiTBs8WaUhDmqcw1UYa0pAmDZ4t0pCGNE9hqo00pCFNGjxbpCENaZ7CVBtpSEOaNHi2SEMa0jyFqTbSkIY0afBskYY0pHkKU22kIQ1p0uDZIg1pSPMUptpIQxrSpMGzRRrSkOYpTLWRhjSkSYNnizSkIc1TmGojDWlIkwbPFmlIQ5qnMNVGGtKQJg2eLdKQhjRPYaqNNKQhTRo8W6QhDWmewlQbaUhDmjR4tkhDGtI8hak20pCGNGnwbJGGNKR5ClNtpCENadLg2SINaUjzFKbaSEMa0qTBs30q7XQ6pdIhBNqGxiDn8gMbYm40La36oQAAAABJRU5ErkJggg==;" parent="1" vertex="1">
          <mxGeometry x="310" y="697.16" width="120" height="105.69" as="geometry" />
        </mxCell>
        <mxCell id="9hEtEOGuXdVL01eTdrAQ-48" value="VPC" style="points=[[0,0],[0.25,0],[0.5,0],[0.75,0],[1,0],[1,0.25],[1,0.5],[1,0.75],[1,1],[0.75,1],[0.5,1],[0.25,1],[0,1],[0,0.75],[0,0.5],[0,0.25]];outlineConnect=0;gradientColor=none;html=1;whiteSpace=wrap;fontSize=12;fontStyle=0;shape=mxgraph.aws4.group;grIcon=mxgraph.aws4.group_vpc;strokeColor=#248814;fillColor=none;verticalAlign=top;align=left;spacingLeft=30;fontColor=#AAB7B8;dashed=0;" parent="1" vertex="1">
          <mxGeometry x="-130" y="30" width="940" height="650" as="geometry" />
        </mxCell>
        <mxCell id="TFa0Fs1w__sC3nQEy60Y-8" style="edgeStyle=orthogonalEdgeStyle;rounded=0;orthogonalLoop=1;jettySize=auto;html=1;entryX=0;entryY=0.5;entryDx=0;entryDy=0;entryPerimeter=0;startArrow=none;" parent="1" source="9hEtEOGuXdVL01eTdrAQ-19" target="ybvvgDhYwiLB9ChFGUOF-35" edge="1">
          <mxGeometry relative="1" as="geometry" />
        </mxCell>
        <mxCell id="TFa0Fs1w__sC3nQEy60Y-39" style="edgeStyle=orthogonalEdgeStyle;rounded=0;orthogonalLoop=1;jettySize=auto;html=1;exitX=1;exitY=0.75;exitDx=0;exitDy=0;entryX=0;entryY=0.5;entryDx=0;entryDy=0;entryPerimeter=0;" parent="1" source="9hEtEOGuXdVL01eTdrAQ-44" target="TFa0Fs1w__sC3nQEy60Y-36" edge="1">
          <mxGeometry relative="1" as="geometry" />
        </mxCell>
        <mxCell id="9hEtEOGuXdVL01eTdrAQ-44" value="" style="rounded=1;arcSize=10;dashed=0;fillColor=none;gradientColor=none;strokeWidth=2;" parent="1" vertex="1">
          <mxGeometry x="113.25" y="263" width="175" height="200" as="geometry" />
        </mxCell>
        <mxCell id="TFa0Fs1w__sC3nQEy60Y-37" style="edgeStyle=orthogonalEdgeStyle;rounded=0;orthogonalLoop=1;jettySize=auto;html=1;entryX=0.5;entryY=0;entryDx=0;entryDy=0;entryPerimeter=0;" parent="1" source="9hEtEOGuXdVL01eTdrAQ-31" target="TFa0Fs1w__sC3nQEy60Y-36" edge="1">
          <mxGeometry relative="1" as="geometry" />
        </mxCell>
        <mxCell id="9hEtEOGuXdVL01eTdrAQ-31" value="" style="rounded=1;arcSize=10;dashed=0;fillColor=none;gradientColor=none;strokeWidth=2;" parent="1" vertex="1">
          <mxGeometry x="523.5" y="85" width="200" height="200" as="geometry" />
        </mxCell>
        <mxCell id="TFa0Fs1w__sC3nQEy60Y-38" style="edgeStyle=orthogonalEdgeStyle;rounded=0;orthogonalLoop=1;jettySize=auto;html=1;entryX=1;entryY=0.5;entryDx=0;entryDy=0;entryPerimeter=0;" parent="1" source="9hEtEOGuXdVL01eTdrAQ-29" target="TFa0Fs1w__sC3nQEy60Y-36" edge="1">
          <mxGeometry relative="1" as="geometry" />
        </mxCell>
        <mxCell id="9hEtEOGuXdVL01eTdrAQ-29" value="" style="rounded=1;arcSize=10;dashed=0;fillColor=none;gradientColor=none;strokeWidth=2;" parent="1" vertex="1">
          <mxGeometry x="523.5" y="313" width="200" height="200" as="geometry" />
        </mxCell>
        <mxCell id="ybvvgDhYwiLB9ChFGUOF-8" value="" style="dashed=0;html=1;shape=mxgraph.aws3.permissions;fillColor=#D9A741;gradientColor=none;dashed=0;" parent="1" vertex="1">
          <mxGeometry x="130" y="250" width="20" height="30" as="geometry" />
        </mxCell>
        <mxCell id="ybvvgDhYwiLB9ChFGUOF-15" value="" style="outlineConnect=0;dashed=0;verticalLabelPosition=bottom;verticalAlign=top;align=center;html=1;shape=mxgraph.aws3.api_gateway;fillColor=#D9A741;gradientColor=none;" parent="1" vertex="1">
          <mxGeometry x="507" y="710" width="60" height="70" as="geometry" />
        </mxCell>
        <mxCell id="ybvvgDhYwiLB9ChFGUOF-20" value="" style="outlineConnect=0;dashed=0;verticalLabelPosition=bottom;verticalAlign=top;align=center;html=1;shape=mxgraph.aws3.lambda;fillColor=#F58534;gradientColor=none;" parent="1" vertex="1">
          <mxGeometry x="648" y="108" width="46.5" height="60" as="geometry" />
        </mxCell>
        <mxCell id="TFa0Fs1w__sC3nQEy60Y-20" style="edgeStyle=orthogonalEdgeStyle;rounded=0;orthogonalLoop=1;jettySize=auto;html=1;" parent="1" source="ybvvgDhYwiLB9ChFGUOF-28" target="9hEtEOGuXdVL01eTdrAQ-48" edge="1">
          <mxGeometry relative="1" as="geometry" />
        </mxCell>
        <mxCell id="ybvvgDhYwiLB9ChFGUOF-28" value="" style="outlineConnect=0;dashed=0;verticalLabelPosition=bottom;verticalAlign=top;align=center;html=1;shape=mxgraph.aws3.api_gateway;fillColor=#D9A741;gradientColor=none;" parent="1" vertex="1">
          <mxGeometry x="-320" y="280" width="56" height="70" as="geometry" />
        </mxCell>
        <mxCell id="ybvvgDhYwiLB9ChFGUOF-35" value="" style="points=[[0,0,0],[0.25,0,0],[0.5,0,0],[0.75,0,0],[1,0,0],[0,1,0],[0.25,1,0],[0.5,1,0],[0.75,1,0],[1,1,0],[0,0.25,0],[0,0.5,0],[0,0.75,0],[1,0.25,0],[1,0.5,0],[1,0.75,0]];outlineConnect=0;fontColor=#232F3E;gradientColor=#60A337;gradientDirection=north;fillColor=#277116;strokeColor=#ffffff;dashed=0;verticalLabelPosition=bottom;verticalAlign=top;align=center;html=1;fontSize=12;fontStyle=0;aspect=fixed;shape=mxgraph.aws4.resourceIcon;resIcon=mxgraph.aws4.s3;" parent="1" vertex="1">
          <mxGeometry x="366" y="731" width="59" height="59" as="geometry" />
        </mxCell>
        <mxCell id="ybvvgDhYwiLB9ChFGUOF-36" value="" style="outlineConnect=0;dashed=0;verticalLabelPosition=bottom;verticalAlign=top;align=center;html=1;shape=mxgraph.aws3.dynamo_db;fillColor=#2E73B8;gradientColor=none;" parent="1" vertex="1">
          <mxGeometry x="657" y="720" width="49.5" height="60" as="geometry" />
        </mxCell>
        <mxCell id="9hEtEOGuXdVL01eTdrAQ-14" value="" style="outlineConnect=0;dashed=0;verticalLabelPosition=bottom;verticalAlign=top;align=center;html=1;shape=mxgraph.aws3.lambda;fillColor=#F58534;gradientColor=none;" parent="1" vertex="1">
          <mxGeometry x="660" y="329" width="46.5" height="60" as="geometry" />
        </mxCell>
        <mxCell id="9hEtEOGuXdVL01eTdrAQ-32" value="" style="dashed=0;html=1;shape=mxgraph.aws3.permissions;fillColor=#D9A741;gradientColor=none;dashed=0;" parent="1" vertex="1">
          <mxGeometry x="537" y="60" width="30" height="35" as="geometry" />
        </mxCell>
        <mxCell id="9hEtEOGuXdVL01eTdrAQ-35" value="" style="dashed=0;html=1;shape=mxgraph.aws3.permissions;fillColor=#D9A741;gradientColor=none;dashed=0;" parent="1" vertex="1">
          <mxGeometry x="537" y="297.5" width="30" height="35" as="geometry" />
        </mxCell>
        <mxCell id="9hEtEOGuXdVL01eTdrAQ-36" value="" style="points=[[0,0,0],[0.25,0,0],[0.5,0,0],[0.75,0,0],[1,0,0],[0,1,0],[0.25,1,0],[0.5,1,0],[0.75,1,0],[1,1,0],[0,0.25,0],[0,0.5,0],[0,0.75,0],[1,0.25,0],[1,0.5,0],[1,0.75,0]];outlineConnect=0;fontColor=#232F3E;gradientColor=#F78E04;gradientDirection=north;fillColor=#D05C17;strokeColor=#ffffff;dashed=0;verticalLabelPosition=bottom;verticalAlign=top;align=center;html=1;fontSize=12;fontStyle=0;aspect=fixed;shape=mxgraph.aws4.resourceIcon;resIcon=mxgraph.aws4.fargate;" parent="1" vertex="1">
          <mxGeometry x="636" y="190" width="70" height="70" as="geometry" />
        </mxCell>
        <mxCell id="9hEtEOGuXdVL01eTdrAQ-37" value="" style="points=[[0,0,0],[0.25,0,0],[0.5,0,0],[0.75,0,0],[1,0,0],[0,1,0],[0.25,1,0],[0.5,1,0],[0.75,1,0],[1,1,0],[0,0.25,0],[0,0.5,0],[0,0.75,0],[1,0.25,0],[1,0.5,0],[1,0.75,0]];outlineConnect=0;fontColor=#232F3E;gradientColor=#F78E04;gradientDirection=north;fillColor=#D05C17;strokeColor=#ffffff;dashed=0;verticalLabelPosition=bottom;verticalAlign=top;align=center;html=1;fontSize=12;fontStyle=0;aspect=fixed;shape=mxgraph.aws4.resourceIcon;resIcon=mxgraph.aws4.fargate;" parent="1" vertex="1">
          <mxGeometry x="636" y="420" width="73" height="73" as="geometry" />
        </mxCell>
        <mxCell id="9hEtEOGuXdVL01eTdrAQ-58" value="" style="outlineConnect=0;dashed=0;verticalLabelPosition=bottom;verticalAlign=top;align=center;html=1;shape=mxgraph.aws3.lambda;fillColor=#F58534;gradientColor=none;" parent="1" vertex="1">
          <mxGeometry x="194" y="280" width="46.5" height="60" as="geometry" />
        </mxCell>
        <mxCell id="9hEtEOGuXdVL01eTdrAQ-59" value="" style="points=[[0,0,0],[0.25,0,0],[0.5,0,0],[0.75,0,0],[1,0,0],[0,1,0],[0.25,1,0],[0.5,1,0],[0.75,1,0],[1,1,0],[0,0.25,0],[0,0.5,0],[0,0.75,0],[1,0.25,0],[1,0.5,0],[1,0.75,0]];outlineConnect=0;fontColor=#232F3E;gradientColor=#F78E04;gradientDirection=north;fillColor=#D05C17;strokeColor=#ffffff;dashed=0;verticalLabelPosition=bottom;verticalAlign=top;align=center;html=1;fontSize=12;fontStyle=0;aspect=fixed;shape=mxgraph.aws4.resourceIcon;resIcon=mxgraph.aws4.fargate;" parent="1" vertex="1">
          <mxGeometry x="178.25" y="360" width="78" height="78" as="geometry" />
        </mxCell>
        <mxCell id="9hEtEOGuXdVL01eTdrAQ-60" value="" style="endArrow=classic;html=1;exitX=0.5;exitY=1;exitDx=0;exitDy=0;exitPerimeter=0;" parent="1" source="9hEtEOGuXdVL01eTdrAQ-58" target="9hEtEOGuXdVL01eTdrAQ-59" edge="1">
          <mxGeometry width="50" height="50" relative="1" as="geometry">
            <mxPoint x="370" y="410" as="sourcePoint" />
            <mxPoint x="380" y="370" as="targetPoint" />
          </mxGeometry>
        </mxCell>
        <mxCell id="9hEtEOGuXdVL01eTdrAQ-71" value="" style="endArrow=classic;html=1;entryX=0.5;entryY=0;entryDx=0;entryDy=0;entryPerimeter=0;" parent="1" edge="1">
          <mxGeometry width="50" height="50" relative="1" as="geometry">
            <mxPoint x="681.1458333333335" y="383" as="sourcePoint" />
            <mxPoint x="681" y="425" as="targetPoint" />
          </mxGeometry>
        </mxCell>
        <mxCell id="9hEtEOGuXdVL01eTdrAQ-73" value="" style="endArrow=classic;html=1;" parent="1" edge="1">
          <mxGeometry width="50" height="50" relative="1" as="geometry">
            <mxPoint x="679.1458333333335" y="167" as="sourcePoint" />
            <mxPoint x="679" y="190" as="targetPoint" />
          </mxGeometry>
        </mxCell>
        <mxCell id="TFa0Fs1w__sC3nQEy60Y-19" style="edgeStyle=orthogonalEdgeStyle;rounded=0;orthogonalLoop=1;jettySize=auto;html=1;entryX=0.5;entryY=0;entryDx=0;entryDy=0;entryPerimeter=0;" parent="1" source="9hEtEOGuXdVL01eTdrAQ-80" target="ybvvgDhYwiLB9ChFGUOF-28" edge="1">
          <mxGeometry relative="1" as="geometry" />
        </mxCell>
        <mxCell id="9hEtEOGuXdVL01eTdrAQ-80" value="" style="points=[[0,0,0],[0.25,0,0],[0.5,0,0],[0.75,0,0],[1,0,0],[0,1,0],[0.25,1,0],[0.5,1,0],[0.75,1,0],[1,1,0],[0,0.25,0],[0,0.5,0],[0,0.75,0],[1,0.25,0],[1,0.5,0],[1,0.75,0]];outlineConnect=0;fontColor=#232F3E;gradientColor=#F54749;gradientDirection=north;fillColor=#C7131F;strokeColor=#ffffff;dashed=0;verticalLabelPosition=bottom;verticalAlign=top;align=center;html=1;fontSize=12;fontStyle=0;aspect=fixed;shape=mxgraph.aws4.resourceIcon;resIcon=mxgraph.aws4.amplify;" parent="1" vertex="1">
          <mxGeometry x="-331" y="70" width="78" height="78" as="geometry" />
        </mxCell>
        <mxCell id="9hEtEOGuXdVL01eTdrAQ-87" value="Fargate" style="text;html=1;strokeColor=none;fillColor=none;align=center;verticalAlign=middle;whiteSpace=wrap;rounded=0;" parent="1" vertex="1">
          <mxGeometry x="197.25" y="438" width="40" height="20" as="geometry" />
        </mxCell>
        <mxCell id="9hEtEOGuXdVL01eTdrAQ-88" value="API Gateway" style="text;html=1;strokeColor=none;fillColor=none;align=center;verticalAlign=middle;whiteSpace=wrap;rounded=0;" parent="1" vertex="1">
          <mxGeometry x="-312" y="360" width="40" height="20" as="geometry" />
        </mxCell>
        <mxCell id="9hEtEOGuXdVL01eTdrAQ-89" value="KMS" style="text;html=1;strokeColor=none;fillColor=none;align=center;verticalAlign=middle;whiteSpace=wrap;rounded=0;" parent="1" vertex="1">
          <mxGeometry x="-371" y="493" width="40" height="20" as="geometry" />
        </mxCell>
        <mxCell id="9hEtEOGuXdVL01eTdrAQ-90" value="AWS Amplify" style="text;html=1;strokeColor=none;fillColor=none;align=center;verticalAlign=middle;whiteSpace=wrap;rounded=0;" parent="1" vertex="1">
          <mxGeometry x="-280" y="153" width="50" height="27" as="geometry" />
        </mxCell>
        <mxCell id="9hEtEOGuXdVL01eTdrAQ-91" value="Lambda" style="text;html=1;strokeColor=none;fillColor=none;align=center;verticalAlign=middle;whiteSpace=wrap;rounded=0;" parent="1" vertex="1">
          <mxGeometry x="150" y="300" width="40" height="20" as="geometry" />
        </mxCell>
        <mxCell id="9hEtEOGuXdVL01eTdrAQ-92" value="S3" style="text;html=1;strokeColor=none;fillColor=none;align=center;verticalAlign=middle;whiteSpace=wrap;rounded=0;" parent="1" vertex="1">
          <mxGeometry x="425" y="750" width="40" height="20" as="geometry" />
        </mxCell>
        <mxCell id="9hEtEOGuXdVL01eTdrAQ-93" value="Dynamo" style="text;html=1;strokeColor=none;fillColor=none;align=center;verticalAlign=middle;whiteSpace=wrap;rounded=0;" parent="1" vertex="1">
          <mxGeometry x="709" y="759" width="40" height="20" as="geometry" />
        </mxCell>
        <mxCell id="9hEtEOGuXdVL01eTdrAQ-96" value="Fargate" style="text;html=1;strokeColor=none;fillColor=none;align=center;verticalAlign=middle;whiteSpace=wrap;rounded=0;" parent="1" vertex="1">
          <mxGeometry x="648" y="493" width="40" height="20" as="geometry" />
        </mxCell>
        <mxCell id="9hEtEOGuXdVL01eTdrAQ-97" value="Fargate" style="text;html=1;strokeColor=none;fillColor=none;align=center;verticalAlign=middle;whiteSpace=wrap;rounded=0;" parent="1" vertex="1">
          <mxGeometry x="657" y="260" width="40" height="20" as="geometry" />
        </mxCell>
        <mxCell id="TFa0Fs1w__sC3nQEy60Y-3" style="edgeStyle=orthogonalEdgeStyle;rounded=0;orthogonalLoop=1;jettySize=auto;html=1;exitX=0.5;exitY=1;exitDx=0;exitDy=0;" parent="1" source="9hEtEOGuXdVL01eTdrAQ-102" target="ybvvgDhYwiLB9ChFGUOF-36" edge="1">
          <mxGeometry relative="1" as="geometry" />
        </mxCell>
        <mxCell id="TFa0Fs1w__sC3nQEy60Y-4" style="edgeStyle=orthogonalEdgeStyle;rounded=0;orthogonalLoop=1;jettySize=auto;html=1;" parent="1" source="9hEtEOGuXdVL01eTdrAQ-102" target="ybvvgDhYwiLB9ChFGUOF-35" edge="1">
          <mxGeometry relative="1" as="geometry" />
        </mxCell>
        <mxCell id="TFa0Fs1w__sC3nQEy60Y-7" style="edgeStyle=orthogonalEdgeStyle;rounded=0;orthogonalLoop=1;jettySize=auto;html=1;" parent="1" source="9hEtEOGuXdVL01eTdrAQ-102" target="ybvvgDhYwiLB9ChFGUOF-15" edge="1">
          <mxGeometry relative="1" as="geometry" />
        </mxCell>
        <mxCell id="9hEtEOGuXdVL01eTdrAQ-102" value="" style="shape=image;verticalLabelPosition=bottom;labelBackgroundColor=#ffffff;verticalAlign=top;aspect=fixed;imageAspect=0;image=data:image/png,iVBORw0KGgoAAAANSUhEUgAAAD8AAAA7CAYAAADMzlLJAAAUx0lEQVRoBc1bV3QUx7bV5/u5P+/nffja5CAJlKXBNgb7OoFNMCY8ZK7BGIMNPGN8DRiQUA5IIiMRhEhCIEQwGWOCyGByBpEzAoRAQPd07v3WqZpujUYzIw1m3XV7raJ6Wt2nap9z6qQqgvDvvEwDUJ2Qn1fj6vnTuHz2FKQXTwFd+XfOwh4ryL57zTfm80oYt49B/XM5lJ2zoGxOh1z2M6QlQ6Au+QYoHQ6UDYey5FvIJcOhrJsI5Y+pUPbMg35hO4yHV2Bq8mueVV1yrw28CcB8dBXGsTKom1JgLBkEFPaCOftjGNPeg5HrgJoZCSmlPaSUdryl8l5JD4eeHQNj6rswZrwPc243mEX9oJWNhlaeD+PKPpjyy7ozfw2//jJ40/kc+rnfIW9IgrH4KyD/E5g5DqjpYZDTwiFnRkPOimFNyoqFMyvOa5OzYu335IxIyGlh0LOiYE7vDLOwJ7QVI6DuWwDj4eXXAJuTeGXwplQD/dQ6qCU/wCj4FHqOAyRBOTMKBMSZGQeBWoarz4yD6Kexd93ep3elzFjImTGQMyKgZUTCnPk+1MI+0LZPgfng4l9mQsDgTUOHUbEbWtkoGPkfM1WW0yMYYJqwBdYf0ED+RkwRMyxGRENODYMxrSP0Bf2g750Ls+bBKzMhIPDGk9vQ/siFOb8HtKxokHpKWVyibJI+JRsLMTMWYkYMxLRIiClhEFPa8z41HGJGNP87veOTBmcsaZSUFQMlLRzGzM7Qlg+DdmEHTPIkAV6NAk/GjBmdFcNg5jmgZEbA6W+iGbEQ06MhJLeDkNjGbmJSKMQsB8S8DyBO+wji1A8h5nSEmBoOIaEtfy+hDYRJIRDTIiASHS/MIEYzJmRGwyC7MKcr9D35IPsTyNUgeNM0oR9fBbOoN7SsSMgZUWxC9SXtgJgeA2ESB0GTd87oCqnoa8gbU6EeWATtWBn0S+XQb5+Efu8c9LtnoV87BO3UeqiHl0HeMQ3SsuFwFvSCmN0BwqRgCBNbQUwJh5jpcLVa20FLjOyCkhEBc0Yn6BsSQNrZ2MsveFPXoB8ogpH/CdSsSCaJ+qBdk8mIgTPTAakwHsq2PGhnt8CovATz6V0uEUP3PyfThKk4YT5/CKPqBvRrBxnDpNLRcJKGpEf71ATSDom0YIoDRukImJUV/sdy/dUneFNToO2eA2PGB1CzovwDz4yFMKkN5FVjYDy45N0nm4DprIH5sgrGs/vMZRFI88UjmEI1oHmJ8nQV5ovH0I6WQcx5DwLZCS/LgJ6RUMgWGDkx0IqHsHk0xAGv4GmNa/sXMuAKk3itqnkdnAxZUgi0Y6tqx1MENgHt+CooO6ZDXvMrpIUDIc3vD2leP0gFX0Ca2xtSYX9IhV9BXvEjlK2T+fK4doiBtoiRNjjn9mZj+LID1rycWbGcAcuHway6aZHw2nsFr53eBH3OZ0zitK4swr56Ibk9nNnvwrh5zB5ELS+Ac9rHzE0JqREQk9tDJENGLYlaqKt3/U4OhZAaxj1CbidIiwfDqLrO6Zk60ypmCNPJ5tD69z4vrgGxMPJioK2fCPNltT0nz5t64DUyRksHQM2OdLkf74PYg6dFQhj3FuQ142CKTxl94+k9iHO+xMtxbzGLLxJ4mrQP681okbsjC58Sxq3+hOZQj5YCLluhnf8DQqYDwsSWnEE+wHNacSxa1Ke9A21/IbMlnsDpdx3wpvgM2tqx0LOjIGXGeHDXATEtymXNW0NIcLWkEMhLhsBwMzLqnyWcceTPszr4lZTNRAbGsugOiIltWBJEa54uU5Wg7FsAMe9923UK5BYTWkFMbsfHIzfqxhQ1Oxr6jI+gX90HWsqeVx3wysFiGNM7sRC1nrqnRzM1lhZ+zVRSKh4GeXM6tFPrmEW3CBuVl+Gc1xcCqbY/SbtN0n3C9n16FFsGyoFFgK4y8qYiQr99AurhEsgbUyAtHwmpeCizHYzJZHs86BqTo6CUDINRU2lN0e5t8Mbjq9CLB0LNJJ/qqepkzdtCXjMWxoOLILWmsNKUXtiE6IYsvbR0KISkdkxL6tPxpNvAb5Lo5I5QDxfXzfnJLZLneF7J5qGeWAsxt3M9b0Drn/IMPS8WxvFSkAdzv2zwyq5ZLKWkLKy+L4+FkNiaBSvki+tcmsIYoh5Y6LLIoRBTyV7UVcFXZgQZxmwHpDXjoJ3dDOPp3TrD0w/t8l6+HFJC6wsuIw5GbgzUBf1hPLlV51sG3qi6CWPpQKjp4SxsrD9RAt8G8vrEWqP28DIrUkglw+Gc3YMZIabqaf6tcX3a/qTvYmBKe244c9+DNK8vpBU/siDKKnZoF7ZDzCPJ09qvT4+iQD0nFvrxsjrSZ+CVQ8tgzvyH97XuIkYGTl47gQckAPSLOyFkvwNhfDO+vsm4sTXeGIk7QO6RYno+2Ya+odA5ijMgKRjCuDchr0+yY3nt3O8Qc9/jNL1pHJN+LE+/nz+0pR9ERkRbNRpaRgQkL1yzOElWVSr7lx186FcP8KgrsQ1PVrwN6o1eegzE7HeZJRen/IP7enrWqO85k4QJzaFsyQZkgQFRT66DmP02zxR90FGy46DmdYRx7VAteOP2SZgL+0JOD2O5uAXWs6cEg1Tcyp/1u6chzujCpe5jQE8a7LfL32tnNkOr2APn/H48ebG1oL7a1qXDl6BSXgC4anxUJ2Rax8JfH1qUwSM/fd9ckMDpCiK3Ycz+CHJWtH/w5HeL/gmj+g770Hh0lWdf5NK8SdjXMwKfHgnt4g5O5+EVZsyYr54UzCJCv1rAQulQqIeKAUNjNNS98yGQraEI0acgKOpzQC0dYbu9IHlTGvTJ3CXUt/K1UhCSQ+DM7wnj0RU2oPnyCfP3LFQNxJ8z8FHQzmxgdOgfoqUeXApx6kc8aCEgHgGLzWD2fTRoncMVuijbcsFCaIoQfYKP4zhndYXuKoEFOZeNgEzVVFdFhg1KxoXy8oRWtZHcr02ZwdGu7OOTNnTIpaMgjH0DwoQWte9ZkZ+vfkJzCBOaQTuxxgbPbnQV+s2jkJb9wMYWky235aHGlNvndoZx54w9D6nsZ547sIpQrcBshrm0UMmialI09OuH2bdB6pLBrIxsv5gWCef0TyCt+D+mjtKqX8Ba2WhIK3+CfuuEPWn1+BpIpaPYc/s9631f/UqiMxr6jaM2HfcbisQo5mAGjIxpOlVz3BiQHApn/hcg90wXBTvSokHMcFJ1yVd1mJ7LWXFQqRB64Q/2bZC5+CtWD7PAc8M2gsXqpI6Uf/P2mOXeUCV7rqYswHxJzx+7vWe976Ondyled6NjE3TdUCBFvtu54CtXQlQbtrJgq3QUG49eN+6dgTjzM2Z4zZwOQJ6fltsBmBoHnC5jIwWZRX1ZydkGP74FpFX/gikFVg/zBPA6fquHlvLEiHkCB7PoVDRRds60maee2Qxn9jtQ09rju7j/Qcemf/PbOjX7GzqFt0Kn9zoiyCzqUxd8QhuWLBBHWZXl2T2YVqu+y+Npl5UlgOyd6ju171jv+uopL3h6z/bRXpmkq1BPrIFzTu+6kidjlxbJqrUweZ4mb58OZ1okzKwoNPvv/0JQUFDjmw3eKlpQrSzvfVaLY5WXogGQrEYVGHJ3buteO7yMh5zz+d/sd61vPPvCeEjz+7EI0QLgzgCj+jbLFpnhZZmhm8onhcI5uzuMx7zIQWmuVDKCFUYoBT84MhTbvgv22f4Y0hblP7TBrhmjsHv7NgQZC/pAybDCzDjuYogBlFGxagtVXFyNqqlj/w511yyWX9OktdMbWRFCGN8EImVz1ru+ejJiE1tAO7YSnuCpYEHMZVUfokUu1M3lkfeR1yUCriVp3D0LcfqnEGiszDgg721gqp82pQMwywEcKWL8DlLn9YaaQf7Rw0XQwJ6NCpUU5i7+lhUhiQIVH0lDaC2yzQfPbzx/kw9PCeOuzqW65osqbuHzOrMiBqv8MAvvZuWZyodz/+7aoFAPLIZAgqK8wt0jeGJx/SZvYObE4vm2mdCcAoKcBb2hpbtJ3seHNnOoJJXZAfqVvba2UqjJJkw+2E1S9jfuNGmyqWGg8JYu/dZxyMuGQ0gJZ3V6qv17A0Jxh7OwP8xqXpenEFVaPpxrGvvGQ3juY7ruKbszs2PweMssyAS+Zk5/tiNKftDrZL0QIekrW7LsEjWVsCitpU2GBmkQ+PRoqCd/g3ZmI4saqWTla2OC0cuIgZDYFur+hXZIq1/Zz3N4Wh6NkDrRIT/vTI/Co/KlUBQFQXdmD4SQHAplssNLEcMHQ8jwTO8C4/4FLn3TgEwhppWm+pM+xebZb8NZGM+3q8io+QtnqSY/KZiH1g9doTUAZUMytw209+dFQN6eaTlxqJzQHo+OboNumgg6N/N7PEtsB20yL/x7+6jeswwrs8qHqfLKDu2bkyUWGyN9mmxqBITG1ABIUxKDoR5cYldy9Tun4HQzdPXm54MZRm4cLv0SgcozB5nQgk4vTkNVciz0yd43BX0STgqBc2YXGA9c0ofJDg8wUKQB/qRPk/NSbKw/lgNCQktICwfVKV8pG5K4NwpA6rSsydidTPwU1bf4AYegc1uW41bKB1Azo1hcXH8CPlSfpE+uZ3OGHQ3SLqm8YiQreYlptO3sZq19SMP3eFTtaQch622W91tuUacaQG4nbugCsFNUzHiZGoVj00eipopXc4LuX72I48k98SwhFOrkACfLXEwcyD9bF6mkOKMrM1BsTz5g0MRs1x5BYlso5fkwrdI1pdFLh/Kl1UAG58lUStsvjgrG+XVFkBVexQ3SNQ17pv6EG2PasXw3EKtPA9DGgXN+fxiPb7jwm6CyEklMSGqE9ffGHNrqntgS0uqxMFybFkRcKZ/N83Z7y9qHVnrQlKn6mxmLnSMcuH/huCUnvmNzestKHP2lI4SUCGb1Pbnm9zcdQqDi5vpJLL1klDUF6t5CVl1hFd1A1J+W04QWkBZ9A+PxNXui+sUdEJm6B1g5yoyDnhuHm2PCsCdnJF5U8x0gIsyqty+qq/B7QjwqfmwLbbIjsLVPwOhkRXJ7KLvnsEOGbMaywM7UUQRGAQqdq/FvA1wVWpL4osFsL8BCTocZnAVf8KVEEWMAzFSyHXiZFoOtg0JQUb4Rhl57TsDetDi6qhA7v4/F00nhnAEequNX+jQZCjYoeDm42N5doShMOVQMMacT0w5+9sa7XaG9d9oboJo8HUC0Lv3+BZbXU5DDDigEAJyWMAnz7I+h2Jo4AM8q71lkWW+DF59WYeOEr3BoSCu2xUMc8w/Yy3pjxcwOrB5nHTZghxwu7YJzbh8IE1u4ystu32bQsmnFYnQ6gWnW3LcnSEdXnAsHcYm/wi4QHY+7PyESq/oHo2L3Rhgep0Ns8DTipd0b8Nu3HXDxx2DGMTIU/oqaXpnDMqxYKLsL7IID0dYfXWGbi+TfORPCeDhM0p7fD9rZraDKkHXpN44wQ8qWDEWAAWliHDsX+DQlBtsGtMSuvJ8h1vDtc4s+9XXAa4qEvQWT8Ft8MG6NDYeW0wFSQ8GKt0klhTBjJ29IgfGUl7ppMKq3UdWVipTEBOeMLiybozK4fZkGtFMb4JzVnWd4LJAJTAvJZQvpsdg/pC1Wff8hHl52FTvtQfhNHfD06MWje9gwPh5r+zbHvYlR0HM7QHqVJZAcxnIGKi7S1pb7ZdZUsgoq7fhSQcK6iFHKthy2MyskBge8xkk71BwHxKxYHPo+FEv7huLi9tUwDO9n9OqBp4ncP3cUK7//EL/1acoYYJAGBMwA8gIRPCCZ0plVZ6x6uQXW6ulQsXp8NZxFA/jJDFo6AVp1Ak6a6syIxZ8/hGJRj+Y4vCQPmlzLXGs8q/cKnv54/cBWlAx6G6u/bIKbv0bxs7WBRoBkmcnV0TKgczv5X0DZPpWdw4Ouw3z+iBU16Mg5HS5g69vetmq8qpNVJ+P2nFR9aCgWfd4Ee2aOh7OmysLptfcJns7YXt29njGgtFcTnBsdxvJhnbjrbZ37fVarBUJqOJyzPoe88ideb6cNRiqPUdmMJTuNB03SJqNMx9krE6Ow45tgFH3eBOXTxuBlVcNncn2CJ1bRIcQbB7di5dAPUNyjCfYPC8WT5Fg2GCUKNHjjmwsUSdau75FG8PigwSzQYyxL2nKWAxd/icD6+NZY2LMlDsxNgvCk/hEUb6L3C54xwDRx7/RBbBjTG0t6NGWDXPiZzt7SiQcH5FdlAkn5FdY1gSajpjNpR2PPd6FY3qs5iuPDcbx0Jv9vK96QennWIHjrm2d3ruJgQQIWfdmWacGOwSG4Po6fujZzHSwnCHw5NF5zyOXSuibQVckxODqyPdb2b40FXf+OdaO748a+jVAlvvVszbmhvtHgiZD0/Ckqtpdh3egeWNyzGVb0boGd34agYkwEatKoIMInSCWxv8oI+p4Aazl8TdNG6v2EKBwZ0Q7r4ttgafemKImPxME5iXhy/XxDOL3+PSDwRIHOtZMWnFoxHSu/64zF3Zpiea8W2PR1WxwZ0R43f41kjKDwmKRk0H85mUzLo7YREKu5PyemkXRpOREjyZ48nBSN86PDGZNX9WuN4h5NsbhPCHZmDsOdozshv3jmFVhjHgYM3iJKKlZ1+TROlkzD2pFdsKBbMyzp3gQr+7TCxn+2xd6hoTg3Ohw3fo1E5aRoPE/nKk7hMkmV1q67dtC5vycpsbg9MQqXx0QwRm77Jhhr/rc1Y+6Cz95EcXwkyiePxM0DWyBU1eYA1pwC7V8ZvDUQMeHZ7cuo+H05yrOHY/k376Dw8yZY1K0JSr5sgdI+LbEmvg02fR2MrQODsXVQMLYPDsHOISFMmgSQnm8ZGIz1A9qirF8rLO/dEkt7Nkdh1zexqHcINv7SC8eXTMaD0wcabcmt+fnr/zJ4m7hpQHxSiUcVJ1Hx+wocyB+PTeP6oGRwR8zr3hL5n7yBuZ++wQF1a8KWy6JuTVH02VuY9+nfUfDJGyjo8iYW94/E6pFdmFqfLJ2BO8d2oebuNajO/8D/WmaDd78xTUg11ai5dwNVV8/i1tGduLZ3Ay5vL8Pp1XNwpCgDh+en4M/CVJwonoILm5fi6p51uL5/Cx6cP4KntyqYWmuyx4FH9zFew/3/A35JVLQ3YuYRAAAAAElFTkSuQmCC;" parent="1" vertex="1">
          <mxGeometry x="646" y="590" width="63" height="59" as="geometry" />
        </mxCell>
        <mxCell id="TFa0Fs1w__sC3nQEy60Y-12" style="edgeStyle=orthogonalEdgeStyle;rounded=0;orthogonalLoop=1;jettySize=auto;html=1;exitX=0.5;exitY=1;exitDx=0;exitDy=0;exitPerimeter=0;entryX=0.5;entryY=1;entryDx=0;entryDy=0;entryPerimeter=0;" parent="1" source="9hEtEOGuXdVL01eTdrAQ-19" target="ybvvgDhYwiLB9ChFGUOF-36" edge="1">
          <mxGeometry relative="1" as="geometry">
            <Array as="points">
              <mxPoint x="219" y="840" />
              <mxPoint x="682" y="840" />
            </Array>
          </mxGeometry>
        </mxCell>
        <mxCell id="9hEtEOGuXdVL01eTdrAQ-19" value="" style="outlineConnect=0;dashed=0;verticalLabelPosition=bottom;verticalAlign=top;align=center;html=1;shape=mxgraph.aws3.internet_gateway;fillColor=#F58534;gradientColor=none;" parent="1" vertex="1">
          <mxGeometry x="194" y="528" width="50" height="62" as="geometry" />
        </mxCell>
        <mxCell id="TFa0Fs1w__sC3nQEy60Y-16" style="edgeStyle=orthogonalEdgeStyle;rounded=0;orthogonalLoop=1;jettySize=auto;html=1;entryX=0.5;entryY=1;entryDx=0;entryDy=0;entryPerimeter=0;" parent="1" source="TFa0Fs1w__sC3nQEy60Y-14" target="ybvvgDhYwiLB9ChFGUOF-35" edge="1">
          <mxGeometry relative="1" as="geometry">
            <Array as="points">
              <mxPoint x="61" y="493" />
              <mxPoint x="61" y="870" />
              <mxPoint x="396" y="870" />
            </Array>
          </mxGeometry>
        </mxCell>
        <mxCell id="TFa0Fs1w__sC3nQEy60Y-18" style="edgeStyle=orthogonalEdgeStyle;rounded=0;orthogonalLoop=1;jettySize=auto;html=1;entryX=1;entryY=0.5;entryDx=0;entryDy=0;entryPerimeter=0;" parent="1" source="TFa0Fs1w__sC3nQEy60Y-14" target="ybvvgDhYwiLB9ChFGUOF-36" edge="1">
          <mxGeometry relative="1" as="geometry">
            <Array as="points">
              <mxPoint x="-282" y="920" />
              <mxPoint x="800" y="920" />
              <mxPoint x="800" y="750" />
            </Array>
          </mxGeometry>
        </mxCell>
        <mxCell id="TFa0Fs1w__sC3nQEy60Y-14" value="" style="outlineConnect=0;dashed=0;verticalLabelPosition=bottom;verticalAlign=top;align=center;html=1;shape=mxgraph.aws3.kms;fillColor=#759C3E;gradientColor=none;" parent="1" vertex="1">
          <mxGeometry x="-320" y="446.5" width="76.5" height="93" as="geometry" />
        </mxCell>
        <mxCell id="TFa0Fs1w__sC3nQEy60Y-22" value="10.0.0.0/16" style="text;html=1;strokeColor=none;fillColor=none;align=center;verticalAlign=middle;whiteSpace=wrap;rounded=0;" parent="1" vertex="1">
          <mxGeometry x="-60" y="30" width="70" height="20" as="geometry" />
        </mxCell>
        <mxCell id="TFa0Fs1w__sC3nQEy60Y-23" value="Public subnet us-east-1-a" style="text;html=1;strokeColor=none;fillColor=none;align=center;verticalAlign=middle;whiteSpace=wrap;rounded=0;" parent="1" vertex="1">
          <mxGeometry x="160" y="240" width="170" height="20" as="geometry" />
        </mxCell>
        <mxCell id="TFa0Fs1w__sC3nQEy60Y-24" value="Private subnet us-east-1-b" style="text;html=1;strokeColor=none;fillColor=none;align=center;verticalAlign=middle;whiteSpace=wrap;rounded=0;" parent="1" vertex="1">
          <mxGeometry x="566" y="60" width="170" height="20" as="geometry" />
        </mxCell>
        <mxCell id="TFa0Fs1w__sC3nQEy60Y-25" value="Private subnet us-east-1-c" style="text;html=1;strokeColor=none;fillColor=none;align=center;verticalAlign=middle;whiteSpace=wrap;rounded=0;" parent="1" vertex="1">
          <mxGeometry x="566" y="293" width="170" height="20" as="geometry" />
        </mxCell>
        <mxCell id="TFa0Fs1w__sC3nQEy60Y-26" value="VPC end points" style="text;html=1;strokeColor=none;fillColor=none;align=center;verticalAlign=middle;whiteSpace=wrap;rounded=0;" parent="1" vertex="1">
          <mxGeometry x="648" y="649" width="170" height="20" as="geometry" />
        </mxCell>
        <mxCell id="TFa0Fs1w__sC3nQEy60Y-27" value="API gateway(private endpoints)" style="text;html=1;strokeColor=none;fillColor=none;align=center;verticalAlign=middle;whiteSpace=wrap;rounded=0;" parent="1" vertex="1">
          <mxGeometry x="460" y="790" width="150" height="30" as="geometry" />
        </mxCell>
        <mxCell id="TFa0Fs1w__sC3nQEy60Y-30" value="10.0.1.0/24&lt;span style=&quot;color: rgba(0 , 0 , 0 , 0) ; font-family: monospace ; font-size: 0px&quot;&gt;%3CmxGraphModel%3E%3Croot%3E%3CmxCell%20id%3D%220%22%2F%3E%3CmxCell%20id%3D%221%22%20parent%3D%220%22%2F%3E%3CmxCell%20id%3D%222%22%20value%3D%2210.0.0.0%2F16%22%20style%3D%22text%3Bhtml%3D1%3BstrokeColor%3Dnone%3BfillColor%3Dnone%3Balign%3Dcenter%3BverticalAlign%3Dmiddle%3BwhiteSpace%3Dwrap%3Brounded%3D0%3B%22%20vertex%3D%221%22%20parent%3D%221%22%3E%3CmxGeometry%20x%3D%22-60%22%20y%3D%2230%22%20width%3D%2270%22%20height%3D%2220%22%20as%3D%22geometry%22%2F%3E%3C%2FmxCell%3E%3C%2Froot%3E%3C%2FmxGraphModel%3E&lt;/span&gt;" style="text;html=1;strokeColor=none;fillColor=none;align=center;verticalAlign=middle;whiteSpace=wrap;rounded=0;" parent="1" vertex="1">
          <mxGeometry x="296" y="260" width="70" height="20" as="geometry" />
        </mxCell>
        <mxCell id="TFa0Fs1w__sC3nQEy60Y-31" value="10.0.2.0/24&lt;span style=&quot;color: rgba(0 , 0 , 0 , 0) ; font-family: monospace ; font-size: 0px&quot;&gt;%3CmxGraphModel%3E%3Croot%3E%3CmxCell%20id%3D%220%22%2F%3E%3CmxCell%20id%3D%221%22%20parent%3D%220%22%2F%3E%3CmxCell%20id%3D%222%22%20value%3D%2210.0.0.0%2F16%22%20style%3D%22text%3Bhtml%3D1%3BstrokeColor%3Dnone%3BfillColor%3Dnone%3Balign%3Dcenter%3BverticalAlign%3Dmiddle%3BwhiteSpace%3Dwrap%3Brounded%3D0%3B%22%20vertex%3D%221%22%20parent%3D%221%22%3E%3CmxGeometry%20x%3D%22-60%22%20y%3D%2230%22%20width%3D%2270%22%20height%3D%2220%22%20as%3D%22geometry%22%2F%3E%3C%2FmxCell%3E%3C%2Froot%3E%3C%2FmxGraphModel%3E&lt;/span&gt;" style="text;html=1;strokeColor=none;fillColor=none;align=center;verticalAlign=middle;whiteSpace=wrap;rounded=0;" parent="1" vertex="1">
          <mxGeometry x="648" y="40" width="94" height="20" as="geometry" />
        </mxCell>
        <mxCell id="TFa0Fs1w__sC3nQEy60Y-32" value="10.0.3.0/24&lt;span style=&quot;color: rgba(0 , 0 , 0 , 0) ; font-family: monospace ; font-size: 0px&quot;&gt;%3CmxGraphModel%3E%3Croot%3E%3CmxCell%20id%3D%220%22%2F%3E%3CmxCell%20id%3D%221%22%20parent%3D%220%22%2F%3E%3CmxCell%20id%3D%222%22%20value%3D%2210.0.0.0%2F16%22%20style%3D%22text%3Bhtml%3D1%3BstrokeColor%3Dnone%3BfillColor%3Dnone%3Balign%3Dcenter%3BverticalAlign%3Dmiddle%3BwhiteSpace%3Dwrap%3Brounded%3D0%3B%22%20vertex%3D%221%22%20parent%3D%221%22%3E%3CmxGeometry%20x%3D%22-60%22%20y%3D%2230%22%20width%3D%2270%22%20height%3D%2220%22%20as%3D%22geometry%22%2F%3E%3C%2FmxCell%3E%3C%2Froot%3E%3C%2FmxGraphModel%3E&lt;/span&gt;" style="text;html=1;strokeColor=none;fillColor=none;align=center;verticalAlign=middle;whiteSpace=wrap;rounded=0;" parent="1" vertex="1">
          <mxGeometry x="440" y="299" width="94" height="20" as="geometry" />
        </mxCell>
        <mxCell id="TFa0Fs1w__sC3nQEy60Y-40" style="edgeStyle=orthogonalEdgeStyle;rounded=0;orthogonalLoop=1;jettySize=auto;html=1;exitX=0.5;exitY=1;exitDx=0;exitDy=0;exitPerimeter=0;entryX=0.5;entryY=0;entryDx=0;entryDy=0;entryPerimeter=0;" parent="1" source="TFa0Fs1w__sC3nQEy60Y-36" target="9hEtEOGuXdVL01eTdrAQ-19" edge="1">
          <mxGeometry relative="1" as="geometry">
            <Array as="points">
              <mxPoint x="401" y="491" />
              <mxPoint x="219" y="491" />
            </Array>
          </mxGeometry>
        </mxCell>
        <mxCell id="TFa0Fs1w__sC3nQEy60Y-42" style="edgeStyle=orthogonalEdgeStyle;rounded=0;orthogonalLoop=1;jettySize=auto;html=1;exitX=0.5;exitY=1;exitDx=0;exitDy=0;exitPerimeter=0;" parent="1" source="TFa0Fs1w__sC3nQEy60Y-36" target="9hEtEOGuXdVL01eTdrAQ-102" edge="1">
          <mxGeometry relative="1" as="geometry">
            <Array as="points">
              <mxPoint x="401" y="550" />
              <mxPoint x="677" y="550" />
            </Array>
          </mxGeometry>
        </mxCell>
        <mxCell id="TFa0Fs1w__sC3nQEy60Y-36" value="" style="outlineConnect=0;dashed=0;verticalLabelPosition=bottom;verticalAlign=top;align=center;html=1;shape=mxgraph.aws3.router;fillColor=#F58534;gradientColor=none;" parent="1" vertex="1">
          <mxGeometry x="380" y="385" width="55" height="58" as="geometry" />
        </mxCell>
      </root>
    </mxGraphModel>
  </diagram>
</mxfile>
